<svg xmlns="http://www.w3.org/2000/svg" viewBox="0 0 1200 800" width="1200" height="800" preserveAspectRatio="xMidYMid slice">
<defs><linearGradient id="gallery8" x1="0" y1="0" x2="0.4" y2="1"><stop offset="0" stop-color="#E7C2C4"/><stop offset="1" stop-color="#D9A5AA"/></linearGradient></defs>
<rect width="1200" height="800" fill="url(#gallery8)"/>
<ellipse cx="712" cy="360" rx="80" ry="36" transform="rotate(0 712 360)" fill="#FAF6F0" fill-opacity="0.4" stroke="#C5A46D" stroke-width="1.6"/><ellipse cx="679.1959594928933" cy="439.19595949289334" rx="80" ry="36" transform="rotate(45 679.1959594928933 439.19595949289334)" fill="#FAF6F0" fill-opacity="0.4" stroke="#C5A46D" stroke-width="1.6"/><ellipse cx="600" cy="472" rx="80" ry="36" transform="rotate(90 600 472)" fill="#FAF6F0" fill-opacity="0.4" stroke="#C5A46D" stroke-width="1.6"/><ellipse cx="520.8040405071067" cy="439.19595949289334" rx="80" ry="36" transform="rotate(135 520.8040405071067 439.19595949289334)" fill="#FAF6F0" fill-opacity="0.4" stroke="#C5A46D" stroke-width="1.6"/><ellipse cx="488" cy="360" rx="80" ry="36" transform="rotate(180 488 360)" fill="#FAF6F0" fill-opacity="0.4" stroke="#C5A46D" stroke-width="1.6"/><ellipse cx="520.8040405071066" cy="280.80404050710666" rx="80" ry="36" transform="rotate(225 520.8040405071066 280.80404050710666)" fill="#FAF6F0" fill-opacity="0.4" stroke="#C5A46D" stroke-width="1.6"/><ellipse cx="600" cy="248" rx="80" ry="36" transform="rotate(270 600 248)" fill="#FAF6F0" fill-opacity="0.4" stroke="#C5A46D" stroke-width="1.6"/><ellipse cx="679.1959594928933" cy="280.80404050710666" rx="80" ry="36" transform="rotate(315 679.1959594928933 280.80404050710666)" fill="#FAF6F0" fill-opacity="0.4" stroke="#C5A46D" stroke-width="1.6"/><circle cx="600" cy="360" r="32" fill="#C5A46D" fill-opacity="0.8"/><path d="M600 496 Q520 624 584 760" stroke="#C5A46D" fill="none" stroke-width="2"/>
<rect x="32" y="32" width="1136" height="736" fill="none" stroke="#C5A46D" stroke-width="1.6" stroke-opacity=".8"/>
</svg>