<svg xmlns="http://www.w3.org/2000/svg" viewBox="0 0 800 1000" width="800" height="1000" preserveAspectRatio="xMidYMid slice">
<defs><linearGradient id="serviceparty" x1="0" y1="0" x2="0.4" y2="1"><stop offset="0" stop-color="#3B2E29"/><stop offset="1" stop-color="#302521"/></linearGradient></defs>
<rect width="800" height="1000" fill="url(#serviceparty)"/>
<circle cx="400" cy="450" r="56.00000000000001" stroke="#E7C2C4" fill="none" stroke-width="2" stroke-opacity="0.85"/><circle cx="400" cy="450" r="112.00000000000001" stroke="#E7C2C4" fill="none" stroke-width="2" stroke-opacity="0.7"/><circle cx="400" cy="450" r="168.00000000000003" stroke="#E7C2C4" fill="none" stroke-width="2" stroke-opacity="0.55"/><circle cx="400" cy="450" r="224.00000000000003" stroke="#E7C2C4" fill="none" stroke-width="2" stroke-opacity="0.4"/><line x1="400" y1="450" x2="624" y2="450" stroke="#E7C2C4" fill="none" stroke-width="2" stroke-opacity=".5"/><line x1="400" y1="450" x2="606.9490152825283" y2="535.7210888497801" stroke="#E7C2C4" fill="none" stroke-width="2" stroke-opacity=".5"/><line x1="400" y1="450" x2="558.3919189857867" y2="608.3919189857867" stroke="#E7C2C4" fill="none" stroke-width="2" stroke-opacity=".5"/><line x1="400" y1="450" x2="485.72108884978013" y2="656.9490152825283" stroke="#E7C2C4" fill="none" stroke-width="2" stroke-opacity=".5"/><line x1="400" y1="450" x2="400" y2="674" stroke="#E7C2C4" fill="none" stroke-width="2" stroke-opacity=".5"/><line x1="400" y1="450" x2="314.27891115021987" y2="656.9490152825283" stroke="#E7C2C4" fill="none" stroke-width="2" stroke-opacity=".5"/><line x1="400" y1="450" x2="241.60808101421335" y2="608.3919189857867" stroke="#E7C2C4" fill="none" stroke-width="2" stroke-opacity=".5"/><line x1="400" y1="450" x2="193.05098471747175" y2="535.7210888497801" stroke="#E7C2C4" fill="none" stroke-width="2" stroke-opacity=".5"/><line x1="400" y1="450" x2="175.99999999999997" y2="450" stroke="#E7C2C4" fill="none" stroke-width="2" stroke-opacity=".5"/><line x1="400" y1="450" x2="193.05098471747175" y2="364.27891115021987" stroke="#E7C2C4" fill="none" stroke-width="2" stroke-opacity=".5"/><line x1="400" y1="450" x2="241.6080810142133" y2="291.6080810142133" stroke="#E7C2C4" fill="none" stroke-width="2" stroke-opacity=".5"/><line x1="400" y1="450" x2="314.27891115021976" y2="243.0509847174718" stroke="#E7C2C4" fill="none" stroke-width="2" stroke-opacity=".5"/><line x1="400" y1="450" x2="399.99999999999994" y2="225.99999999999997" stroke="#E7C2C4" fill="none" stroke-width="2" stroke-opacity=".5"/><line x1="400" y1="450" x2="485.72108884978013" y2="243.05098471747178" stroke="#E7C2C4" fill="none" stroke-width="2" stroke-opacity=".5"/><line x1="400" y1="450" x2="558.3919189857867" y2="291.6080810142133" stroke="#E7C2C4" fill="none" stroke-width="2" stroke-opacity=".5"/><line x1="400" y1="450" x2="606.9490152825282" y2="364.27891115021976" stroke="#E7C2C4" fill="none" stroke-width="2" stroke-opacity=".5"/><circle cx="400" cy="450" r="40" fill="#C5A46D" fill-opacity="0.6"/>
<rect x="32" y="32" width="736" height="936" fill="none" stroke="#E7C2C4" stroke-width="1.6" stroke-opacity=".8"/>
</svg>